<svg id="vector" xmlns="http://www.w3.org/2000/svg" width="48" height="48" viewBox="0 0 100 100"><path fill="#ffffff" d="M79.963,43.362C79.398,43.404 78.846,43.578 78.349,43.897L36.192,70.923C34.424,72.056 34.033,74.574 35.314,76.567L48.381,96.89C49.662,98.883 52.117,99.576 53.885,98.442L96.042,71.416C97.81,70.282 98.202,67.765 96.92,65.772L83.854,45.449C83.053,44.203 81.794,43.466 80.53,43.364C80.34,43.349 80.151,43.348 79.963,43.362zM78.808,53.922A4.125,4.127 63.952,0 1,82.288 55.801A4.125,4.127 63.952,0 1,81.075 61.509A4.125,4.127 63.952,0 1,75.367 60.296A4.125,4.127 63.952,0 1,76.58 54.588A4.125,4.127 63.952,0 1,78.808 53.922zM77.337,66.844A4.125,4.127 63.952,0 1,80.817 68.723A4.125,4.127 63.952,0 1,79.604 74.431A4.125,4.127 63.952,0 1,73.896 73.218A4.125,4.127 63.952,0 1,75.11 67.51A4.125,4.127 63.952,0 1,77.337 66.844zM52.815,68.081L56.371,73.556L61.918,69.975L65.459,75.484L59.937,79.048L63.602,84.692L58.066,88.288L54.391,82.629L48.844,86.21L45.303,80.701L50.824,77.137L47.278,71.677L52.815,68.081z" stroke-width="0.17701" id="path_0"/><path fill="#000000" d="M60.804,58.372C59.681,61.926 44.901,46.024 68.287,35.921 83.629,29.56 76.706,6.361 52.572,10.103 41.534,12.348 36.482,18.335 36.482,18.335" fill-opacity="0" stroke="#ffffff" stroke-width="3.52778" id="path_1"/><path fill="#ffffff" d="M55.257,33.304C55.09,32.885 54.825,32.508 54.464,32.207L23.816,6.68C22.53,5.609 20.524,5.916 19.319,7.368L7.021,22.171C5.815,23.623 5.879,25.654 7.164,26.725L37.812,52.252C39.097,53.322 41.103,53.015 42.309,51.563L54.607,36.76C55.36,35.853 55.618,34.72 55.391,33.735C55.358,33.587 55.313,33.443 55.257,33.304zM46.96,34.962A3.288,3.286 51.202,0 1,46.369 38.057A3.288,3.286 51.202,0 1,41.742 38.505A3.288,3.286 51.202,0 1,41.293 33.88A3.288,3.286 51.202,0 1,45.919 33.43A3.288,3.286 51.202,0 1,46.96 34.962zM36.793,36.948A3.288,3.286 51.202,0 1,36.201 40.043A3.288,3.286 51.202,0 1,31.575 40.491A3.288,3.286 51.202,0 1,31.125 35.865A3.288,3.286 51.202,0 1,35.752 35.416A3.288,3.286 51.202,0 1,36.793 36.948zM29.965,18.622L26.661,22.637L30.712,25.989L27.379,30.001L23.347,26.664L19.94,30.803L15.88,27.461L19.295,23.311L15.244,19.959L18.577,15.947L22.61,19.284L25.905,15.28L29.965,18.622z" stroke-width="0.17701" id="path_2"/></svg>